<mxfile host="app.diagrams.net" agent="Mozilla/5.0 (Windows NT 10.0; Win64; x64) AppleWebKit/537.36 (KHTML, like Gecko) Chrome/136.0.0.0 Safari/537.36" version="26.2.15">
  <diagram id="C5RBs43oDa-KdzZeNtuy" name="Page-1">
    <mxGraphModel dx="1831" dy="1172" grid="1" gridSize="10" guides="1" tooltips="1" connect="1" arrows="1" fold="1" page="1" pageScale="1" pageWidth="827" pageHeight="1169" math="0" shadow="0">
      <root>
        <mxCell id="WIyWlLk6GJQsqaUBKTNV-0" />
        <mxCell id="WIyWlLk6GJQsqaUBKTNV-1" parent="WIyWlLk6GJQsqaUBKTNV-0" />
        <mxCell id="qz6CIZYonVushC8HXPEA-3" value="" style="rounded=0;whiteSpace=wrap;html=1;" vertex="1" parent="WIyWlLk6GJQsqaUBKTNV-1">
          <mxGeometry x="119.67" y="480" width="280" height="160" as="geometry" />
        </mxCell>
        <mxCell id="qz6CIZYonVushC8HXPEA-0" value="" style="shape=image;verticalLabelPosition=bottom;labelBackgroundColor=default;verticalAlign=top;aspect=fixed;imageAspect=0;image=https://pages.uoregon.edu/emi/animationFiles/nonFlash/8_3/images/high.png;" vertex="1" parent="WIyWlLk6GJQsqaUBKTNV-1">
          <mxGeometry x="140" y="505" width="239.35" height="110" as="geometry" />
        </mxCell>
        <mxCell id="qz6CIZYonVushC8HXPEA-1" value="Input&lt;br&gt;(FMA Dataset)" style="text;html=1;align=center;verticalAlign=middle;whiteSpace=wrap;rounded=0;fontFamily=Times New Roman;fontSize=20;rotation=0;fontStyle=1" vertex="1" parent="WIyWlLk6GJQsqaUBKTNV-1">
          <mxGeometry x="194.67" y="420" width="130" height="50" as="geometry" />
        </mxCell>
        <mxCell id="qz6CIZYonVushC8HXPEA-4" value="" style="rounded=0;whiteSpace=wrap;html=1;" vertex="1" parent="WIyWlLk6GJQsqaUBKTNV-1">
          <mxGeometry x="760" y="480" width="260" height="160" as="geometry" />
        </mxCell>
        <mxCell id="qz6CIZYonVushC8HXPEA-5" value="" style="rounded=0;whiteSpace=wrap;html=1;dashed=1;dashPattern=12 12;" vertex="1" parent="WIyWlLk6GJQsqaUBKTNV-1">
          <mxGeometry x="-40" y="760" width="600" height="160" as="geometry" />
        </mxCell>
        <mxCell id="qz6CIZYonVushC8HXPEA-6" value="" style="endArrow=classic;html=1;rounded=0;fontSize=12;startSize=8;endSize=8;curved=1;exitX=1;exitY=0.5;exitDx=0;exitDy=0;entryX=0;entryY=0.5;entryDx=0;entryDy=0;" edge="1" parent="WIyWlLk6GJQsqaUBKTNV-1" source="qz6CIZYonVushC8HXPEA-3" target="qz6CIZYonVushC8HXPEA-4">
          <mxGeometry width="50" height="50" relative="1" as="geometry">
            <mxPoint x="519.6700000000001" y="510" as="sourcePoint" />
            <mxPoint x="569.67" y="460" as="targetPoint" />
          </mxGeometry>
        </mxCell>
        <mxCell id="qz6CIZYonVushC8HXPEA-8" value="&lt;font style=&quot;font-size: 20px;&quot; face=&quot;Times New Roman&quot;&gt;Audio Sample&lt;/font&gt;" style="edgeLabel;html=1;align=center;verticalAlign=middle;resizable=0;points=[];fontSize=12;" vertex="1" connectable="0" parent="qz6CIZYonVushC8HXPEA-6">
          <mxGeometry x="-0.0671" y="6" relative="1" as="geometry">
            <mxPoint x="-1" as="offset" />
          </mxGeometry>
        </mxCell>
        <mxCell id="qz6CIZYonVushC8HXPEA-7" value="" style="endArrow=classic;html=1;rounded=0;fontSize=12;startSize=8;endSize=8;curved=1;exitX=0.5;exitY=1;exitDx=0;exitDy=0;entryX=0.5;entryY=0;entryDx=0;entryDy=0;" edge="1" parent="WIyWlLk6GJQsqaUBKTNV-1" source="qz6CIZYonVushC8HXPEA-3" target="qz6CIZYonVushC8HXPEA-5">
          <mxGeometry width="50" height="50" relative="1" as="geometry">
            <mxPoint x="269.67" y="490" as="sourcePoint" />
            <mxPoint x="260" y="760" as="targetPoint" />
          </mxGeometry>
        </mxCell>
        <mxCell id="qz6CIZYonVushC8HXPEA-9" value="&lt;font style=&quot;font-size: 20px;&quot; face=&quot;Times New Roman&quot;&gt;Audio Sample&lt;/font&gt;" style="edgeLabel;html=1;align=center;verticalAlign=middle;resizable=0;points=[];fontSize=12;" vertex="1" connectable="0" parent="qz6CIZYonVushC8HXPEA-7">
          <mxGeometry x="-0.0515" relative="1" as="geometry">
            <mxPoint as="offset" />
          </mxGeometry>
        </mxCell>
        <mxCell id="qz6CIZYonVushC8HXPEA-12" value="" style="rounded=0;whiteSpace=wrap;html=1;" vertex="1" parent="WIyWlLk6GJQsqaUBKTNV-1">
          <mxGeometry x="-9.999999999999957" y="820" width="160" height="80" as="geometry" />
        </mxCell>
        <mxCell id="qz6CIZYonVushC8HXPEA-13" value="" style="rounded=0;whiteSpace=wrap;html=1;" vertex="1" parent="WIyWlLk6GJQsqaUBKTNV-1">
          <mxGeometry x="370" y="820" width="160" height="80" as="geometry" />
        </mxCell>
        <mxCell id="qz6CIZYonVushC8HXPEA-14" value="Fake Music Generation" style="text;html=1;align=center;verticalAlign=middle;whiteSpace=wrap;rounded=0;fontFamily=Times New Roman;fontSize=20;rotation=0;fontStyle=1" vertex="1" parent="WIyWlLk6GJQsqaUBKTNV-1">
          <mxGeometry x="154.67000000000007" y="930" width="210" height="50" as="geometry" />
        </mxCell>
        <mxCell id="qz6CIZYonVushC8HXPEA-15" value="Encoder" style="text;html=1;align=center;verticalAlign=middle;whiteSpace=wrap;rounded=0;fontFamily=Times New Roman;fontSize=20;rotation=0;" vertex="1" parent="WIyWlLk6GJQsqaUBKTNV-1">
          <mxGeometry x="15.000000000000043" y="840" width="110" height="40" as="geometry" />
        </mxCell>
        <mxCell id="qz6CIZYonVushC8HXPEA-16" value="Decoder using neural codecs" style="text;html=1;align=center;verticalAlign=middle;whiteSpace=wrap;rounded=0;fontFamily=Times New Roman;fontSize=20;rotation=0;" vertex="1" parent="WIyWlLk6GJQsqaUBKTNV-1">
          <mxGeometry x="389.66999999999996" y="840" width="125" height="40" as="geometry" />
        </mxCell>
        <mxCell id="qz6CIZYonVushC8HXPEA-17" value="" style="endArrow=classic;html=1;rounded=0;fontSize=12;startSize=8;endSize=8;curved=1;exitX=1;exitY=0.5;exitDx=0;exitDy=0;entryX=0;entryY=0.5;entryDx=0;entryDy=0;" edge="1" parent="WIyWlLk6GJQsqaUBKTNV-1" source="qz6CIZYonVushC8HXPEA-12" target="qz6CIZYonVushC8HXPEA-13">
          <mxGeometry width="50" height="50" relative="1" as="geometry">
            <mxPoint x="-20.169999999999987" y="700" as="sourcePoint" />
            <mxPoint x="249.83000000000004" y="600" as="targetPoint" />
          </mxGeometry>
        </mxCell>
        <mxCell id="qz6CIZYonVushC8HXPEA-18" value="&lt;font style=&quot;font-size: 20px;&quot; face=&quot;Times New Roman&quot;&gt;Compressed&lt;/font&gt;&lt;div&gt;&lt;font style=&quot;font-size: 20px;&quot; face=&quot;Times New Roman&quot;&gt;Version&lt;/font&gt;&lt;/div&gt;" style="edgeLabel;html=1;align=center;verticalAlign=middle;resizable=0;points=[];fontSize=12;" vertex="1" connectable="0" parent="qz6CIZYonVushC8HXPEA-17">
          <mxGeometry x="-0.0671" y="6" relative="1" as="geometry">
            <mxPoint x="-1" as="offset" />
          </mxGeometry>
        </mxCell>
        <mxCell id="qz6CIZYonVushC8HXPEA-19" value="Autoencoder (AE)" style="text;html=1;align=center;verticalAlign=middle;whiteSpace=wrap;rounded=0;fontFamily=Times New Roman;fontSize=20;rotation=0;" vertex="1" parent="WIyWlLk6GJQsqaUBKTNV-1">
          <mxGeometry x="155.00000000000006" y="770" width="210" height="50" as="geometry" />
        </mxCell>
        <mxCell id="qz6CIZYonVushC8HXPEA-21" value="" style="endArrow=classic;html=1;rounded=0;fontSize=12;startSize=8;endSize=8;curved=1;exitX=1;exitY=0.5;exitDx=0;exitDy=0;entryX=0;entryY=0.5;entryDx=0;entryDy=0;" edge="1" parent="WIyWlLk6GJQsqaUBKTNV-1" source="qz6CIZYonVushC8HXPEA-5" target="qz6CIZYonVushC8HXPEA-23">
          <mxGeometry width="50" height="50" relative="1" as="geometry">
            <mxPoint x="800.33" y="840" as="sourcePoint" />
            <mxPoint x="899" y="960" as="targetPoint" />
          </mxGeometry>
        </mxCell>
        <mxCell id="qz6CIZYonVushC8HXPEA-22" value="&lt;font style=&quot;font-size: 20px;&quot; face=&quot;Times New Roman&quot;&gt;Reconstructed&lt;br&gt;Audio Sample&lt;/font&gt;" style="edgeLabel;html=1;align=center;verticalAlign=middle;resizable=0;points=[];fontSize=12;" vertex="1" connectable="0" parent="qz6CIZYonVushC8HXPEA-21">
          <mxGeometry x="-0.0515" relative="1" as="geometry">
            <mxPoint as="offset" />
          </mxGeometry>
        </mxCell>
        <mxCell id="qz6CIZYonVushC8HXPEA-23" value="" style="rounded=0;whiteSpace=wrap;html=1;" vertex="1" parent="WIyWlLk6GJQsqaUBKTNV-1">
          <mxGeometry x="760" y="760" width="260" height="160" as="geometry" />
        </mxCell>
        <mxCell id="qz6CIZYonVushC8HXPEA-25" style="edgeStyle=none;curved=1;rounded=0;orthogonalLoop=1;jettySize=auto;html=1;exitX=0.75;exitY=0;exitDx=0;exitDy=0;fontSize=12;startSize=8;endSize=8;" edge="1" parent="WIyWlLk6GJQsqaUBKTNV-1" source="qz6CIZYonVushC8HXPEA-14" target="qz6CIZYonVushC8HXPEA-14">
          <mxGeometry relative="1" as="geometry" />
        </mxCell>
      </root>
    </mxGraphModel>
  </diagram>
</mxfile>
